<svg width="350" height="350" fill="none" xmlns="http://www.w3.org/2000/svg"><path fill="#F5F5F5" d="M0 0h350v350H0z"/><path d="M65.826 93.364 99.384 208.74h1.279l33.558-115.376h50.177L130.386 257H69.661L15.648 93.364h50.178ZM288.369 144.5c-.426-5.327-2.424-9.482-5.993-12.464-3.515-2.983-8.869-4.475-16.06-4.475-4.581 0-8.336.559-11.266 1.678-2.876 1.065-5.007 2.53-6.392 4.395-1.385 1.864-2.104 3.995-2.157 6.392-.107 1.97.24 3.755 1.039 5.353.852 1.545 2.184 2.956 3.995 4.235 1.811 1.225 4.128 2.343 6.951 3.355 2.823 1.013 6.179 1.918 10.068 2.717l13.423 2.876c9.055 1.918 16.806 4.448 23.251 7.591s11.719 6.845 15.82 11.106c4.102 4.208 7.111 8.949 9.029 14.223 1.971 5.273 2.983 11.026 3.036 17.258-.053 10.76-2.743 19.869-8.07 27.326-5.326 7.457-12.944 13.13-22.851 17.019-9.855 3.888-21.707 5.833-35.556 5.833-14.222 0-26.634-2.104-37.234-6.313-10.547-4.208-18.75-10.68-24.609-19.415-5.806-8.789-8.736-20.029-8.789-33.718h42.187c.267 5.007 1.518 9.215 3.756 12.624 2.237 3.409 5.38 5.992 9.428 7.75 4.102 1.758 8.975 2.637 14.622 2.637 4.741 0 8.709-.586 11.905-1.758 3.196-1.172 5.62-2.796 7.271-4.874 1.651-2.077 2.503-4.448 2.557-7.111-.054-2.503-.879-4.687-2.477-6.552-1.545-1.917-4.102-3.622-7.671-5.113-3.569-1.545-8.389-2.983-14.462-4.315l-16.299-3.516c-14.489-3.142-25.915-8.389-34.278-15.74-8.309-7.404-12.438-17.498-12.384-30.282-.054-10.387 2.716-19.47 8.309-27.247 5.647-7.83 13.45-13.929 23.411-18.297 10.014-4.368 21.493-6.552 34.437-6.552 13.211 0 24.636 2.211 34.278 6.632 9.641 4.421 17.072 10.654 22.292 18.697 5.273 7.99 7.937 17.338 7.99 28.045h-42.507Z" fill="#000"/><path d="m65.826 93.364.96-.28-.21-.72h-.75v1ZM99.384 208.74l-.96.279.21.721h.75v-1Zm1.279 0v1h.75l.21-.721-.96-.279Zm33.558-115.376v-1h-.751l-.209.72.96.28Zm50.177 0 .95.313.433-1.313h-1.383v1ZM130.386 257v1h.723l.226-.687-.949-.313Zm-60.725 0-.95.313.227.687h.723v-1ZM15.648 93.364v-1h-1.383l.434 1.313.95-.313Zm49.218.279 33.558 115.376 1.92-.558L66.786 93.084l-1.92.559ZM99.384 209.74h1.279v-2h-1.279v2Zm2.239-.721 33.558-115.376-1.92-.559-33.559 115.377 1.921.558Zm32.598-114.655h50.177v-2h-50.177v2Zm49.228-1.314-54.013 163.637 1.899.626 54.013-163.636-1.899-.627ZM130.386 256H69.661v2h60.725v-2Zm-59.775.687L16.598 93.05l-1.9.627 54.014 163.636 1.899-.626ZM15.648 94.364h50.178v-2H15.648v2ZM288.37 144.5l-.997.08.074.92h.923v-1Zm-5.993-12.464-.647.762.006.005.641-.767Zm-27.326-2.797.348.938.009-.004-.357-.934Zm-6.392 4.395-.802-.597.802.597Zm-2.157 6.392.999.054v-.016l.001-.016-1-.022Zm1.039 5.353-.895.447.009.018.01.018.876-.483Zm3.995 4.235-.577.817.008.005.008.006.561-.828Zm17.019 6.072.209-.978-.008-.001-.201.979Zm13.423 2.876-.21.978.003.001.207-.979Zm23.251 7.591-.438.899.438-.899Zm15.82 11.106-.72.694.004.004.716-.698Zm9.029 14.223-.94.341.003.009.937-.35Zm3.036 17.258 1 .005v-.013l-1 .008Zm-8.07 27.326.814.581-.814-.581Zm-22.851 17.019-.366-.931-.001.001.367.93Zm-72.79-.48-.37.929.001.001.369-.93Zm-24.609-19.415-.834.551.003.006.831-.557Zm-8.789-33.718v-1H195l.004 1.003 1-.003Zm42.187 0 .999-.054-.05-.946h-.949v1Zm3.756 12.624-.836.549.836-.549Zm9.428 7.75-.398.918.004.001.394-.919Zm26.527.879.344.939-.344-.939Zm7.271-4.874.783.622-.783-.622Zm2.557-7.111 1 .02v-.021l-.001-.02-.999.021Zm-2.477-6.552-.779.628.01.011.01.012.759-.651Zm-7.671-5.113-.397.917.012.005.385-.922Zm-14.462-4.315.215-.977-.004-.001-.211.978Zm-16.299-3.516-.212.978h.001l.211-.978Zm-34.278-15.74-.665.747.005.004.66-.751Zm-12.384-30.282 1 .004v-.01l-1 .006Zm8.309-27.247-.811-.584v.001l.811.583Zm23.411-18.297-.4-.916h-.001l.401.916Zm68.715.08-.417.91.417-.91Zm22.292 18.697-.839.544.004.007.835-.551Zm7.99 28.045v1h1.005l-.005-1.005-1 .005Zm-41.51-.08c-.444-5.551-2.542-9.971-6.348-13.152l-1.283 1.535c3.332 2.785 5.229 6.674 5.637 11.777l1.994-.16Zm-6.343-13.147c-3.773-3.202-9.405-4.712-16.707-4.712v2c7.08 0 12.156 1.473 15.413 4.237l1.294-1.525Zm-16.707-4.712c-4.651 0-8.539.567-11.622 1.744l.713 1.868c2.776-1.06 6.399-1.612 10.909-1.612v-2Zm-11.613 1.74c-3.001 1.112-5.315 2.674-6.847 4.736l1.605 1.193c1.238-1.666 3.185-3.034 5.937-4.053l-.695-1.876Zm-6.847 4.736c-1.513 2.037-2.297 4.369-2.355 6.966l2 .045c.049-2.197.703-4.126 1.96-5.818l-1.605-1.193Zm-2.354 6.935c-.114 2.125.259 4.085 1.143 5.854l1.789-.894c-.713-1.427-1.033-3.036-.934-4.852l-1.998-.108Zm1.162 5.89c.942 1.707 2.39 3.225 4.294 4.569l1.153-1.634c-1.718-1.213-2.933-2.518-3.696-3.901l-1.751.966Zm4.31 4.58c1.901 1.286 4.3 2.438 7.175 3.469l.675-1.883c-2.772-.993-5.007-2.078-6.729-3.243l-1.121 1.657Zm7.175 3.469c2.879 1.032 6.282 1.949 10.203 2.755l.403-1.959c-3.856-.793-7.164-1.687-9.931-2.679l-.675 1.883Zm10.195 2.753 13.423 2.876.419-1.955-13.423-2.877-.419 1.956Zm13.426 2.877c8.997 1.905 16.666 4.413 23.02 7.511l.876-1.798c-6.536-3.187-14.368-5.74-23.482-7.67l-.414 1.957Zm23.02 7.511c6.361 3.102 11.533 6.74 15.538 10.901l1.441-1.387c-4.198-4.362-9.574-8.128-16.103-11.312l-.876 1.798Zm15.542 10.905c4.008 4.112 6.938 8.732 8.805 13.866l1.88-.683c-1.969-5.413-5.057-10.274-9.253-14.579l-1.432 1.396Zm8.808 13.875c1.926 5.153 2.921 10.789 2.973 16.917l2-.017c-.054-6.337-1.083-12.207-3.099-17.601l-1.874.701Zm2.973 16.903c-.052 10.59-2.697 19.488-7.883 26.75l1.627 1.162c5.467-7.653 8.202-16.972 8.256-27.902l-2-.01Zm-7.883 26.75c-5.197 7.276-12.646 12.84-22.404 16.669l.731 1.862c10.058-3.948 17.844-9.73 23.3-17.369l-1.627-1.162Zm-22.405 16.67c-9.708 3.83-21.429 5.763-35.189 5.763v2c13.938 0 25.922-1.957 35.923-5.903l-.734-1.86Zm-35.189 5.763c-14.126 0-26.407-2.09-36.865-6.242l-.738 1.859c10.743 4.265 23.284 6.383 37.603 6.383v-2Zm-36.863-6.241c-10.375-4.14-18.412-10.49-24.15-19.044l-1.661 1.114c5.981 8.916 14.351 15.511 25.07 19.787l.741-1.857Zm-24.146-19.039c-5.671-8.584-8.57-19.618-8.623-33.17l-2 .007c.054 13.827 3.013 25.272 8.955 34.266l1.668-1.103Zm-9.623-32.166h42.187v-2h-42.187v2Zm41.189-.947c.273 5.143 1.563 9.532 3.918 13.12l1.672-1.098c-2.12-3.231-3.334-7.258-3.593-12.129l-1.997.107Zm3.918 13.12c2.353 3.585 5.654 6.29 9.866 8.118l.796-1.834c-3.885-1.687-6.869-4.149-8.99-7.382l-1.672 1.098Zm9.87 8.12c4.254 1.824 9.269 2.718 15.016 2.718v-2c-5.546 0-10.279-.864-14.228-2.556l-.788 1.838Zm15.016 2.718c4.815 0 8.909-.594 12.249-1.819l-.688-1.878c-3.052 1.119-6.895 1.697-11.561 1.697v2Zm12.249-1.819c3.321-1.218 5.916-2.934 7.71-5.191l-1.566-1.244c-1.509 1.898-3.761 3.431-6.832 4.557l.688 1.878Zm7.71-5.191c1.788-2.249 2.716-4.831 2.774-7.713l-2-.04c-.049 2.445-.826 4.604-2.34 6.509l1.566 1.244Zm2.773-7.754c-.058-2.73-.965-5.138-2.717-7.182l-1.518 1.302c1.444 1.685 2.187 3.645 2.236 5.922l1.999-.042Zm-2.697-7.158c-1.693-2.101-4.421-3.887-8.064-5.409l-.771 1.845c3.494 1.461 5.88 3.084 7.277 4.819l1.558-1.255Zm-8.052-5.404c-3.652-1.581-8.543-3.036-14.645-4.374l-.429 1.954c6.042 1.325 10.793 2.747 14.279 4.255l.795-1.835Zm-14.649-4.375-16.3-3.515-.421 1.955 16.3 3.515.421-1.955Zm-16.298-3.515c-14.376-3.118-25.63-8.307-33.83-15.514l-1.32 1.502c8.526 7.494 20.124 12.799 34.726 15.967l.424-1.955Zm-33.824-15.51c-8.063-7.184-12.103-16.987-12.05-29.531l-2-.009c-.055 13.024 4.162 23.409 12.719 31.034l1.331-1.494Zm-12.05-29.541c-.053-10.194 2.662-19.066 8.121-26.657l-1.623-1.167c-5.727 7.963-8.553 17.255-8.498 27.835l2-.011Zm8.12-26.656c5.53-7.667 13.183-13.66 23.002-17.966l-.803-1.832c-10.104 4.431-18.057 10.636-23.821 18.629l1.622 1.169Zm23-17.965c9.867-4.304 21.206-6.469 34.037-6.469v-2c-13.056 0-24.675 2.204-34.837 6.636l.8 1.833Zm34.037-6.469c13.101 0 24.378 2.193 33.861 6.541l.834-1.818c-9.801-4.494-21.375-6.723-34.695-6.723v2Zm33.861 6.541c9.488 4.351 16.764 10.465 21.87 18.332l1.678-1.088c-5.334-8.22-12.92-14.57-22.714-19.062l-.834 1.818Zm21.874 18.339c5.154 7.809 7.773 16.963 7.825 27.499l2-.01c-.054-10.877-2.763-20.42-8.155-28.591l-1.67 1.102Zm8.825 26.494h-42.507v2h42.507v-2Z" fill="#000"/></svg>